<?xml version="1.0" standalone="no"?>
<!DOCTYPE svg PUBLIC "-//W3C//DTD SVG 20010904//EN"
 "http://www.w3.org/TR/2001/REC-SVG-20010904/DTD/svg10.dtd">
<svg version="1.0" xmlns="http://www.w3.org/2000/svg"
 width="300.000000pt" height="86.000000pt" viewBox="0 0 300.000000 86.000000"
 preserveAspectRatio="xMidYMid meet">
<metadata>
Created by potrace 1.10, written by Peter Selinger 2001-2011
</metadata>
<g transform="translate(0.000000,86.000000) scale(0.050000,-0.050000)"
fill="white" stroke="none">
<path d="M2199 1429 l-47 -50 169 -170 168 -169 60 60 60 60 -159 160 c-177
178 -183 181 -251 109z"/>
<path d="M1860 1280 c0 -111 -19 -149 -50 -100 -35 57 -162 9 -209 -77 -105
-197 76 -482 222 -350 22 20 37 24 37 10 0 -13 30 -23 70 -23 l70 0 0 330 0
330 -70 0 -70 0 0 -120z m-10 -320 c0 -155 -115 -176 -126 -23 -9 120 5 147
71 139 53 -6 55 -11 55 -116z"/>
<path d="M74 1348 c-8 -8 -14 -148 -14 -311 l0 -297 80 0 80 0 0 185 1 185
105 -180 c100 -171 109 -180 179 -186 l75 -6 0 311 0 311 -69 0 -70 0 -5 -191
-6 -190 -110 185 c-109 184 -187 242 -246 184z"/>
<path d="M3300 1346 c-198 -72 -155 -260 81 -355 90 -36 109 -52 109 -92 0
-70 -149 -73 -180 -4 -23 53 -124 63 -143 15 -35 -92 141 -203 291 -182 248
34 250 275 3 362 -101 35 -141 64 -141 102 0 71 148 77 171 6 15 -49 149 -55
149 -7 0 120 -194 208 -340 155z"/>
<path d="M762 1172 c-171 -95 -121 -408 71 -444 74 -14 227 21 227 51 0 61
-25 75 -119 66 -84 -8 -100 -4 -120 33 -22 41 -19 42 108 42 l131 0 0 78 c0
171 -148 257 -298 174z m158 -132 c0 -31 -13 -40 -60 -40 -65 0 -66 1 -48 48
19 48 108 42 108 -8z"/>
<path d="M1226 1180 c-96 -39 -138 -239 -76 -360 65 -125 390 -131 358 -7 -10
36 -23 40 -99 32 -85 -10 -149 15 -149 57 0 10 59 18 130 18 l130 0 0 69 c0
170 -132 256 -294 191z m154 -140 c0 -31 -13 -40 -60 -40 -56 0 -80 33 -47 67
32 31 107 13 107 -27z"/>
<path d="M3720 880 l0 -320 70 0 70 0 0 100 c0 98 1 99 49 77 161 -73 298 175
201 363 -47 91 -169 133 -224 78 -15 -15 -25 -15 -35 0 -7 12 -40 22 -72 22
l-59 0 0 -320z m271 132 c22 -120 -22 -195 -98 -166 -34 13 -49 191 -20 221
41 41 106 11 118 -55z"/>
<path d="M4300 1186 c-47 -18 -100 -70 -100 -99 0 -33 122 -37 155 -4 32 32
85 6 85 -42 0 -33 -13 -41 -69 -41 -147 0 -219 -81 -178 -198 26 -75 149 -105
210 -50 31 27 45 31 52 13 4 -14 38 -25 74 -25 l66 0 -9 185 c-13 245 -103
328 -286 261z m140 -305 c0 -44 -74 -75 -105 -44 -33 33 -1 83 54 83 37 0 51
-11 51 -39z"/>
<path d="M4723 1149 c-117 -98 -95 -336 37 -405 107 -55 257 2 289 111 17 56
-115 69 -137 14 -20 -54 -99 -27 -118 41 -32 114 78 245 119 140 21 -54 153
-40 137 15 -39 133 -215 179 -327 84z"/>
<path d="M5202 1172 c-171 -95 -121 -408 71 -444 95 -18 234 24 219 65 -7 17
-12 37 -12 46 0 9 -40 12 -90 6 -86 -10 -150 15 -150 57 0 10 59 18 130 18
l130 0 -1 85 c-1 162 -153 247 -297 167z m158 -132 c0 -31 -13 -40 -60 -40
-65 0 -66 1 -48 48 19 48 108 42 108 -8z"/>
<path d="M2571 1081 c-42 -43 -69 -87 -62 -100 10 -16 -1 -19 -37 -10 -55 14
-79 -52 -31 -82 12 -7 18 -24 13 -37 -10 -24 142 -83 162 -63 6 6 0 35 -14 64
-22 48 -21 51 8 27 27 -22 41 -17 101 41 81 78 86 117 24 173 -76 68 -86 67
-164 -13z"/>
<path d="M2734 904 l-53 -56 165 -164 166 -165 58 61 58 61 -158 159 c-183
184 -167 177 -236 104z"/>
<path d="M2134 787 c-43 -70 154 -287 260 -287 63 0 42 33 -31 49 -70 16 -150
97 -187 190 -16 38 -34 60 -42 48z"/>
<path d="M2254 786 c-32 -54 89 -177 160 -162 29 6 24 14 -23 37 -33 16 -70
49 -82 74 -30 59 -43 71 -55 51z"/>
<path d="M2340 781 c0 -24 57 -81 81 -81 29 0 23 16 -21 60 -44 44 -60 50 -60
21z"/>
</g>
</svg>
